Coordinates
version=1
nRows=20
nColumns=38
inDegrees=no

Units are S.I. units (second, meters, Newtons, ...)
If the header above contains a line with 'inDegrees', this indicates whether rotational values are in degrees (yes) or radians (no).

endheader
time	pelvis_tilt	pelvis_list	pelvis_rotation	pelvis_tx	pelvis_ty	pelvis_tz	hip_flexion_r	hip_adduction_r	hip_rotation_r	knee_angle_r	ankle_angle_r	subtalar_angle_r	mtp_angle_r	hip_flexion_l	hip_adduction_l	hip_rotation_l	knee_angle_l	ankle_angle_l	subtalar_angle_l	mtp_angle_l	lumbar_extension	lumbar_bending	lumbar_rotation	arm_flex_r	arm_add_r	arm_rot_r	elbow_flex_r	pro_sup_r	wrist_flex_r	wrist_dev_r	arm_flex_l	arm_add_l	arm_rot_l	elbow_flex_l	pro_sup_l	wrist_flex_l	wrist_dev_l
0.74	-0.331429	1.44023	-1.08775	0.971506	1.13982	0.946117	0.406665	-0.135683	-0.240681	1.09769	-0.357384	0	0	-0.232624	-0.0157505	-0.225281	0.0631291	-0.23924	0	0	-0.196812	0.0724013	-0.176906	-0.318997	-0.28296	-0.170509	0.743974	0.316874	0	0	0.0093742	-0.232169	0.0505641	0.652318	1.5708	0	0
0.75	-0.345694	1.43978	-1.07086	0.972277	1.13143	0.945588	0.411455	-0.127892	-0.238331	1.04198	-0.359032	0	0	-0.243451	-0.0188496	-0.223798	0.0606053	-0.23099	0	0	-0.197464	0.0773352	-0.173439	-0.319108	-0.271389	-0.203543	0.748501	0.347994	0	0	0.0306483	-0.240129	0.0920683	0.661927	1.52949	0	0
0.76	-0.363106	1.44144	-1.05189	0.972894	1.1229	0.944855	0.415159	-0.119702	-0.233374	0.979775	-0.36064	0	0	-0.252536	-0.0209873	-0.222484	0.0574123	-0.225284	0	0	-0.195726	0.0801675	-0.175739	-0.313542	-0.288486	-0.158311	0.748775	0.300746	0	0	0.0443577	-0.245942	0.11399	0.676715	1.50445	0	0
0.77	-0.382476	1.4446	-1.03199	0.973334	1.11424	0.943866	0.417055	-0.111591	-0.226748	0.912187	-0.359124	0	0	-0.260619	-0.0223457	-0.221494	0.0537769	-0.220044	0	0	-0.1928	0.0825562	-0.175041	-0.310139	-0.288494	-0.15831	0.750386	0.300953	0	0	0.0595555	-0.250061	0.133544	0.689112	1.49049	0	0
0.78	-0.400316	1.44842	-1.01407	0.973709	1.10546	0.9427	0.415804	-0.104396	-0.220035	0.839283	-0.355074	0	0	-0.268859	-0.0229222	-0.21973	0.049251	-0.215072	0	0	-0.189289	0.0842619	-0.173402	-0.307791	-0.288321	-0.159033	0.752817	0.300886	0	0	0.0747785	-0.253492	0.151897	0.700591	1.47952	0	0
0.79	-0.414893	1.45246	-0.999636	0.974042	1.09653	0.941397	0.410971	-0.0982894	-0.213809	0.761373	-0.348783	0	0	-0.277763	-0.0226007	-0.217055	0.0436907	-0.21045	0	0	-0.185556	0.085434	-0.171062	-0.306551	-0.28808	-0.160311	0.756101	0.30097	0	0	0.0904356	-0.25596	0.169588	0.710504	1.47199	0	0
0.8	-0.426137	1.45686	-0.988593	0.9743	1.08742	0.939938	0.403024	-0.092933	-0.207272	0.679365	-0.341244	0	0	-0.286874	-0.0216633	-0.21443	0.0380384	-0.206252	0	0	-0.181415	0.0856678	-0.1685	-0.306298	-0.28765	-0.162033	0.75987	0.301744	0	0	0.105639	-0.258281	0.186944	0.720106	1.46643	0	0
0.81	-0.431679	1.46074	-0.983119	0.974455	1.07813	0.938405	0.390202	-0.0875204	-0.199497	0.591352	-0.334739	0	0	-0.297049	-0.0205784	-0.212106	0.0325153	-0.201714	0	0	-0.177892	0.0853518	-0.165254	-0.307632	-0.286434	-0.1662	0.764953	0.302767	0	0	0.12109	-0.260793	0.205805	0.729076	1.46046	0	0
0.82	-0.431918	1.46442	-0.982808	0.974497	1.06859	0.936748	0.374072	-0.0827907	-0.190407	0.501042	-0.330118	0	0	-0.307754	-0.0194503	-0.210449	0.0277922	-0.196405	0	0	-0.174515	0.0844835	-0.161881	-0.310229	-0.284524	-0.17217	0.771042	0.30394	0	0	0.135956	-0.262709	0.223415	0.737593	1.456	0	0
0.83	-0.429718	1.46861	-0.985193	0.974416	1.05888	0.934946	0.355471	-0.0783075	-0.178288	0.407854	-0.3275	0	0	-0.317615	-0.0180187	-0.209448	0.024522	-0.190817	0	0	-0.170497	0.0829022	-0.158319	-0.313618	-0.282119	-0.179039	0.777375	0.306703	0	0	0.150128	-0.26366	0.238992	0.745273	1.45372	0	0
0.84	-0.43259	1.47512	-0.982664	0.974221	1.04896	0.932882	0.341198	-0.0760415	-0.165903	0.323304	-0.320281	0	0	-0.324382	-0.0160861	-0.208317	0.0231213	-0.185699	0	0	-0.164351	0.0796287	-0.162816	-0.310573	-0.289738	-0.156903	0.779664	0.288142	0	0	0.152152	-0.264915	0.231823	0.762601	1.46823	0	0
0.85	-0.420406	1.47816	-0.994916	0.973944	1.03904	0.931007	0.321027	-0.072934	-0.152042	0.237218	-0.326298	0	0	-0.334158	-0.0155572	-0.208885	0.0240059	-0.177136	0	0	-0.161405	0.077933	-0.153248	-0.320095	-0.2727	-0.202173	0.789442	0.323484	0	0	0.172323	-0.26903	0.267197	0.765343	1.45212	0	0
0.86	-0.422414	1.482	-0.993061	0.973572	1.02894	0.929029	0.302027	-0.0690955	-0.13805	0.154641	-0.339795	0	0	-0.340822	-0.0163933	-0.211345	0.0286834	-0.167113	0	0	-0.156013	0.0759018	-0.148998	-0.325677	-0.287074	-0.167912	0.796184	0.275516	0	0	0.185177	-0.272088	0.287742	0.77145	1.44468	0	0
0.87	-0.437088	1.48753	-0.978878	0.972918	1.01865	0.926805	0.285847	-0.0669919	-0.121587	0.0811365	-0.350883	0	0	-0.343389	-0.0180395	-0.216077	0.0380841	-0.15478	0	0	-0.148791	0.0740408	-0.145683	-0.330768	-0.285513	-0.171466	0.802724	0.271729	0	0	0.194425	-0.273727	0.299544	0.77879	1.44537	0	0
0.88	-0.465416	1.49454	-0.951457	0.97202	1.00825	0.924403	0.275308	-0.0681523	-0.0996821	0.0255334	-0.355999	0	0	-0.342351	-0.0203128	-0.222914	0.0516261	-0.142047	0	0	-0.139483	0.0717755	-0.14286	-0.335842	-0.283968	-0.173612	0.808886	0.269877	0	0	0.201242	-0.275501	0.308239	0.786532	1.44819	0	0
0.89	-0.494823	1.49999	-0.922206	0.971319	0.997882	0.922284	0.273898	-0.0700483	-0.0917589	0.00428094	-0.35047	0	0	-0.341988	-0.0234253	-0.22964	0.0663281	-0.132577	0	0	-0.132354	0.0705663	-0.142018	-0.339376	-0.28291	-0.175027	0.814408	0.269278	0	0	0.205958	-0.277171	0.313571	0.795097	1.45178	0	0
0.9	-0.496976	1.49994	-0.918418	0.971169	0.987579	0.921047	0.273325	-0.0672691	-0.101902	0.0060732	-0.353886	0	0	-0.34955	-0.0272516	-0.230489	0.0744879	-0.136867	0	0	-0.132017	0.071815	-0.144274	-0.339438	-0.280629	-0.180617	0.817466	0.275551	0	0	0.209512	-0.277495	0.314692	0.803028	1.45568	0	0
0.91	-0.501724	1.49723	-0.911545	0.971143	0.977256	0.920167	0.279449	-0.0634984	-0.121928	0.0367405	-0.353177	0	0	-0.354894	-0.0349896	-0.241383	0.094369	-0.127589	0	0	-0.134494	0.0759714	-0.14535	-0.341692	-0.282336	-0.179615	0.823613	0.270661	0	0	0.214729	-0.276172	0.317582	0.808276	1.45536	0	0
0.92	-0.510101	1.49394	-0.90109	0.971103	0.966777	0.919492	0.293605	-0.0603985	-0.150322	0.0939388	-0.343095	0	0	-0.360633	-0.0434328	-0.250991	0.113755	-0.120659	0	0	-0.137241	0.0808236	-0.147332	-0.343129	-0.284046	-0.178371	0.828792	0.266517	0	0	0.217016	-0.274644	0.316825	0.813648	1.45857	0	0
0.93	-0.521971	1.49084	-0.887437	0.970979	0.956036	0.918928	0.312856	-0.0590752	-0.18358	0.167365	-0.323435	0	0	-0.366387	-0.051875	-0.259056	0.132116	-0.117765	0	0	-0.139197	0.0858933	-0.150041	-0.344516	-0.285243	-0.17798	0.833572	0.264266	0	0	0.21675	-0.272143	0.311898	0.818704	1.46011	0	0
